<svg xmlns="http://www.w3.org/2000/svg" viewBox="0 0 1122.33 399.89"><defs><style>.cls-1{fill:#ff4e01;}.cls-2{fill:#002c6d;}.cls-3{fill:#ff4e00;}</style></defs><g id="Capa_2" data-name="Capa 2"><g id="Capa_1-2" data-name="Capa 1"><path class="cls-1" d="M43.52,337.43a95.93,95.93,0,0,1-12.73-32.88c-7-35.89,6.38-64.69,32-88.82s57.43-35.35,90.53-44.07c28.27-7.45,56.82-14,84.67-22.83,27.47-8.68,53.26-21.47,75.62-40.21,19.54-16.37,34-36.11,39.12-61.52,1.58-7.8,1.71-15.89,2.57-24.51,1,1.72,2,3.24,2.74,4.89,10.67,23.32,10.48,47.3,4.15,71.58-8.83,33.9-32.06,56-60.87,73.28-30.14,18.09-63.38,27.46-97.47,34.75-26.39,5.63-52.84,11.41-78.63,19.2-20.11,6.07-39.42,15.15-55.16,29.86C53.4,271.67,45.62,291.5,43.63,313.72,43,321,43.52,328.43,43.52,337.43Z"/><path d="M289.72,203.21a90.51,90.51,0,0,1-29.21,28.31c-23.8,14.57-49.9,21.75-77.52,25-24.91,2.92-50.08,5.87-73.4,15.93C99.32,276.88,90,283.6,79,290c8.06,9.21,14.55,17.28,21.72,24.7,20.9,21.64,45.1,38.89,71.54,53.16,3.47,1.87,6,1.52,9.23-.2,27.07-14.29,51.8-31.78,73-53.9,16.9-17.6,30.09-37.74,40.61-59.84a290.34,290.34,0,0,0,23.6-73.13,8.64,8.64,0,0,1,2.89-4.5c9.06-7.74,18.26-15.31,28.45-23.81-.56,6.41-.52,12.4-1.7,18.13-3.28,16.05-6.25,32.23-10.81,47.93-13.62,47-36.1,88.89-72.07,122.89a315.25,315.25,0,0,1-85.85,57.77,7.43,7.43,0,0,1-5.57.2c-41.68-20-78.59-46.21-108.24-82.12-5.3-6.41-7.18-12.23-4-20.62,8.52-22.65,24.61-37.28,46.13-46.8,22.27-9.84,46.15-13.3,69.89-16.73,27.66-4,55.46-7.16,81.9-16.81C269.73,212.69,279.31,207.81,289.72,203.21Z"/><path class="cls-2" d="M176.22,0c46.15,33.89,96.91,55.84,155.6,61.71C325.45,69.9,320,77.3,314,84.19c-1,1.14-4.58.4-6.87,0-36.8-7.08-70.92-21.35-103.76-39C195.66,41,188,36.75,180.46,32.27c-2.78-1.65-4.83-1.74-7.54.19-40.23,28.62-85.86,43.48-133.87,52-12.91,2.29-13.18,1.81-13.14,14.81a384.33,384.33,0,0,0,9.2,84.3c1.87,8.15,4.23,16.21,5.71,24.42A12.77,12.77,0,0,1,39,216.57c-4.77,7.08-10.18,13.74-15.92,21.32-1.29-3.47-2.82-6.41-3.49-9.54C14.23,203.63,8.81,178.92,3.94,154.1-.22,132.94-.58,111.47.55,90c.38-7.25,1.53-14.44,2.18-21.67.41-4.5,2.56-6.3,7.19-6.51C60.57,59.6,107.12,44,150.54,18.31c4.48-2.66,8.71-5.77,13-8.8C167.6,6.58,171.57,3.49,176.22,0Z"/><path class="cls-3" d="M253.3,88c-5.56,19.75-16.75,33.79-34.1,43-21.25,11.3-44,18.19-67.41,23.29-27.94,6.11-54,16.86-78.65,31.17-1.2.7-2.49,1.27-5.1,2.59,15-21.59,33.1-36.73,56.91-44.4q40.17-12.94,80.37-25.7c17.73-5.61,33.71-14,45.93-28.44A15,15,0,0,1,253.3,88Z"/><path d="M462.66,183.18l32.49-18.83c5.88,13.66,16,22.84,34.6,22.84,17.89,0,22.37-7.07,22.37-13.42,0-10.12-9.42-14.13-34.14-21-24.48-6.83-48.49-18.6-48.49-50.15,0-31.78,26.83-50.14,55.32-50.14,27.07,0,48.26,13,60.26,37.2l-31.78,18.59c-5.65-11.77-13.42-19.07-28.48-19.07-11.77,0-17.66,5.89-17.66,12.48,0,7.53,4,12.71,29.66,20.48,25,7.54,53,16.25,53,51.09,0,31.78-25.42,50.61-61.21,50.61C494,223.91,471.84,207.43,462.66,183.18Z"/><path d="M663.48,99.61c-34.6,0-62.38,27.08-62.38,62.15s27.78,62.15,62.38,62.15,62.39-27.07,62.39-62.15S698.09,99.61,663.48,99.61Zm0,89.93c-15.3,0-27.07-11.06-27.07-27.78S648.18,134,663.48,134s27.08,11.07,27.08,27.78S678.79,189.54,663.48,189.54Z"/><rect x="741.96" y="48.76" width="35.31" height="171.85"/><circle cx="819.1" cy="71.36" r="21.19"/><rect x="801.44" y="102.91" width="35.31" height="117.71"/><path d="M947.32,102.91v12c-7.77-9.65-19.07-15.3-34.37-15.3-33.43,0-57.91,27.31-57.91,59.8S879.52,219.2,913,219.2c15.3,0,26.6-5.65,34.37-15.3v10.83c0,16.71-10.13,25.19-26.6,25.19-15.54,0-22.37-6.59-26.84-14.83l-30.13,17.42c10.82,19.3,31.31,28.48,55.79,28.48,31.31,0,62.15-16.71,62.15-56.26V102.91Zm-28.49,83.81c-16.71,0-28.48-11.07-28.48-27.31s11.77-27.31,28.48-27.31,28.49,11.06,28.49,27.31S935.55,186.72,918.83,186.72Z"/><path d="M1059.94,99.61c-34.6,0-62.38,27.08-62.38,62.15s27.78,62.15,62.38,62.15,62.39-27.07,62.39-62.15S1094.55,99.61,1059.94,99.61Zm0,89.93c-15.3,0-27.07-11.06-27.07-27.78S1044.64,134,1059.94,134,1087,145.05,1087,161.76,1075.25,189.54,1059.94,189.54Z"/><path class="cls-2" d="M506.39,246.64,469,356.5H496.5l5.5-17.27h40.8l5.49,17.27h27.47L538.41,246.64Zm3.14,69.05,12.87-40.33,12.87,40.33Z"/><rect class="cls-2" x="589.57" y="246.64" width="25.11" height="109.86"/><path class="cls-2" d="M696.69,316.16c12.09-6.12,20.25-18.36,20.25-31.86a37.58,37.58,0,0,0-37.67-37.66H635.33V356.5h25.11V320.4h11.93l20.71,36.1h27Zm-17.42-17.73H660.44V270.18h18.83c6.91,0,12.56,6.12,12.56,14.12S686.18,298.43,679.27,298.43Z"/></g></g></svg>